<?xml version="1.0" standalone="no"?>
<!DOCTYPE svg PUBLIC "-//W3C//DTD SVG 20010904//EN"
 "http://www.w3.org/TR/2001/REC-SVG-20010904/DTD/svg10.dtd">
<svg version="1.0" xmlns="http://www.w3.org/2000/svg"
 width="512.000000pt" height="512.000000pt" viewBox="0 0 512.000000 512.000000"
 preserveAspectRatio="xMidYMid meet">
<metadata>
Created by potrace 1.14, written by Peter Selinger 2001-2017
</metadata>
<g transform="translate(0.000000,512.000000) scale(0.100000,-0.100000)"
fill="#000000" stroke="none">
<path d="M4955 5069 c-22 -4 -80 -14 -130 -23 -49 -9 -99 -18 -110 -20 -16 -3
-106 -26 -240 -60 -159 -41 -418 -126 -615 -203 -219 -86 -640 -283 -712 -334
-14 -10 -29 -19 -33 -19 -3 0 -63 -34 -133 -76 -156 -93 -163 -97 -176 -107
-6 -4 -63 -42 -126 -84 -63 -42 -142 -96 -175 -120 -33 -23 -71 -51 -84 -60
-25 -18 -268 -201 -286 -215 -5 -4 -28 -23 -51 -40 -22 -18 -60 -49 -84 -68
-51 -41 -280 -230 -296 -245 -6 -5 -37 -32 -70 -60 -32 -27 -65 -57 -74 -65
-8 -8 -28 -25 -43 -36 -23 -19 -84 -72 -191 -169 -13 -11 -56 -49 -96 -85 -41
-36 -101 -90 -134 -121 -34 -31 -74 -68 -91 -83 -73 -67 -247 -229 -334 -311
-185 -176 -441 -419 -496 -470 -22 -20 -70 -67 -108 -103 l-67 -65 0 -244 c1
-185 4 -242 13 -236 7 4 30 24 52 44 22 21 54 50 70 65 57 51 228 209 246 226
26 25 197 179 238 214 19 16 41 36 50 45 13 12 163 139 218 184 7 6 18 15 25
20 13 11 197 156 257 203 95 75 459 321 556 377 142 82 429 225 450 225 3 0
25 9 48 19 87 39 359 126 455 146 9 2 46 10 82 18 36 8 81 18 100 21 19 3 44
7 55 10 11 2 43 7 70 10 28 4 61 9 75 11 155 25 552 25 720 0 14 -2 45 -7 70
-10 123 -18 341 -81 482 -140 62 -27 176 -86 267 -140 22 -13 123 -87 137
-100 6 -5 29 -27 52 -47 56 -50 151 -172 184 -233 l27 -51 -72 36 c-40 20 -83
40 -97 44 -14 5 -29 10 -35 12 -26 9 -203 45 -253 50 -100 11 -344 12 -427 2
-441 -52 -798 -304 -979 -690 -41 -88 -94 -240 -101 -290 -2 -18 -8 -60 -12
-93 -4 -33 -8 -159 -7 -280 0 -206 2 -226 27 -320 84 -313 232 -538 483 -733
23 -18 44 -32 47 -32 3 0 25 -13 49 -28 71 -47 172 -97 257 -127 37 -13 131
-15 642 -15 l599 0 0 2541 0 2540 -63 -2 c-34 -2 -80 -6 -102 -10z"/>
<path d="M1688 1605 c-2 -3 -38 -7 -79 -10 -122 -9 -190 -23 -329 -67 -279
-88 -496 -208 -765 -423 -28 -22 -66 -51 -84 -65 -41 -31 -70 -55 -140 -117
-30 -26 -62 -55 -71 -63 -37 -32 -185 -166 -202 -182 -16 -16 -18 -44 -17
-348 l0 -330 954 0 c543 0 955 4 955 9 0 5 -18 24 -39 43 -58 51 -175 210
-217 297 -51 103 -72 190 -72 291 0 295 197 547 493 628 91 25 209 22 335 -8
137 -32 164 -35 179 -16 22 26 5 47 -104 132 -124 96 -205 149 -253 165 -20 6
-43 16 -49 22 -7 5 -13 7 -13 4 0 -4 -19 1 -42 10 -33 12 -89 17 -230 19 -103
1 -191 5 -196 8 -5 3 -11 3 -14 1z"/>
</g>
</svg>
