<?xml version="1.0" encoding="UTF-8"?>
<svg id="Layer_1" xmlns="http://www.w3.org/2000/svg" viewBox="0 0 1536.4 155">
  <defs>
    <style>
      .cls-1 {
        fill: #b4b6b8;
      }

      .cls-2, .cls-3, .cls-4 {
        fill: none;
      }

      .cls-3 {
        stroke: #809ebc;
      }

      .cls-3, .cls-4 {
        stroke-width: 2px;
      }

      .cls-4 {
        stroke: #dadbdc;
      }

      .cls-5 {
        fill: #003d78;
      }
    </style>
  </defs>
  <g>
    <path class="cls-3" d="M278,154c-3.89-2.54-7.73-5.08-11.54-7.62-5.05-3.37-8.74-6.12-11.06-8.26-6.81-6.28-12.01-13.91-15.6-22.9-1.44-3.59-2.78-8.29-4.03-14.08-.51-2.39-.72-4.66-.61-6.81.15-2.93.15-5.22.02-6.89-.25-3.25.09-6.64,1.02-10.18,1.34-5.05,2.83-8.99,4.46-11.8,6.66-11.45,15.79-21,27.38-28.67,3.71-2.45,7.62-4.13,11.74-5.02,11.35-2.48,22.83-2.47,34.45.04,4.23.91,8.31,2.33,12.26,4.26,2.38,1.17,4.15,2.01,5.3,2.54,1.13.51,1.36.25.68-.79-9.12-13.98-22.31-24.89-38.06-30.42-7.75-2.72-16.79-3.89-25.4-4.39-11.71-.67-23.55-.36-35.51.93-5.9.64-12.04,1.85-18.43,3.63-19.87,5.53-38.17,14.14-54.9,25.85-8.43,5.9-16.53,12.14-24.28,18.72-11.26,9.56-22.11,19.29-32.54,29.2-12.17,11.56-22.6,21.37-31.31,29.44-7.85,7.27-14.99,13.46-21.42,18.57-8.22,6.52-14.88,11.2-19.98,14.03-6.47,3.59-10.51,5.97-12.14,7.13-.51.36-.82.78-.93,1.26-.06.28.11.56.39.62.08.02.16.02.24,0,5.78-1.42,11.21-2.99,16.28-4.71,8.45-2.88,16.18-7.15,23.17-12.8,7.47-6.04,12.92-10.67,16.35-13.88,14.81-13.89,25.05-23.24,30.72-28.04,12.56-10.61,25.71-20.49,39.91-26.82,23.26-10.37,55.12-13.5,77.08,2.19,4.52,3.23,7.85,7.1,10,11.61.26.55.37.92.34,1.1-.13.75-.59.91-1.38.46-2.73-1.55-5.1-2.58-7.12-3.1-8.08-2.09-18.92-2.29-27.04.65-11.16,4.05-18.54,12.04-22.15,23.98-.74,2.46-1.17,5.71-1.28,9.74-.13,4.91-.04,8.2.28,9.86,2.61,13.38,10.09,22.84,22.42,28.37,2.77,1.24,5.68,1.98,8.72,2.21,4.17.33,8.35.59,12.54.79" vector-effect="non-scaling-stroke"/>
    <path class="cls-4" d="M138.43,154c.45-.25.18-.76-.79-1.51-.48-.37-.86-.73-1.15-1.07-2.13-2.59-3.68-4.74-4.65-6.43-3.4-5.92-4-11.82-1.8-17.71,3.29-8.81,13.34-14.77,22.58-12.65,1.67.38,3.45.79,5.36,1.23,1.15.27,1.25.06.28-.62-3.1-2.19-6.1-5.3-9.78-6.67-2.66-.99-4.56-1.5-5.7-1.51-6.46-.06-10.22-.06-11.29,0-3.25.15-6.6.77-10.05,1.86-7.29,2.31-13.93,5.77-19.9,10.39-4.89,3.79-7.43,5.71-11.03,8.99-9.6,8.74-18.58,16.75-26.94,24.04-.23.2-.84.51-1.81.93-.41.18-.41.34.02.49l.72.25" vector-effect="non-scaling-stroke"/>
    <path class="cls-3" d="M670.38,31.19c0-.3-.25-.55-.55-.55h-7.92c-.3,0-.55.25-.55.55v109.5c0,.3.25.55.55.55h7.92c.3,0,.55-.25.55-.55V31.19" vector-effect="non-scaling-stroke"/>
    <path class="cls-3" d="M1171.65,31.06c0-.22-.17-.39-.39-.39h-8.1c-.22,0-.39.17-.39.39h0v109.8c0,.22.17.39.39.39h8.1c.22,0,.39-.17.39-.39h0V31.06" vector-effect="non-scaling-stroke"/>
    <path class="cls-3" d="M878.15,31.2c0-.31-.25-.56-.56-.56h-7.82c-.31,0-.56.25-.56.56v109.46c0,.31.25.56.56.56h7.82c.31,0,.56-.25.56-.56V31.2" vector-effect="non-scaling-stroke"/>
    <path class="cls-3" d="M1055.05,54.13c.11.1.2.09.29-.03l5.26-6.78c.09-.11.07-.27-.03-.36-10.27-8.93-21.7-11.81-34.28-8.64-13.16,3.32-21.42,14.57-19.52,28.23.78,5.61,3.33,10.2,7.64,13.79,3.07,2.55,5.78,4.43,8.15,5.63,10.59,5.37,15.89,8.06,15.91,8.07,7.5,4.27,13.69,9.33,14.79,18.41.93,7.67-1.46,13.6-7.15,17.77-2.72,1.99-5.99,3.24-9.81,3.73-10.88,1.41-22.15-2.69-29.38-10.8-.41-.46-.8-.45-1.17.04l-4.64,5.98c-.37.47-.33.91.12,1.31.93.84,2.09,2.22,3.06,2.97,8.87,6.79,18.76,10.01,29.67,9.66,7.22-.23,15.53-3.19,20.62-7.78,7.93-7.15,10.82-16.18,8.66-27.08-.99-5.01-3.16-9.28-6.5-12.81-2.77-2.93-5.35-5.1-7.75-6.51-3.61-2.12-9.41-5.12-17.42-8.99-7.51-3.64-15.8-9.34-14.93-18.83.67-7.36,4.63-12.08,11.86-14.16,9.75-2.81,18.6-.41,26.55,7.18" vector-effect="non-scaling-stroke"/>
    <path class="cls-3" d="M323.27,55.5c.32.26.93.78,1.83,1.57.33.29.64.27.91-.08l4.58-5.92c.24-.31.2-.76-.09-1.02-4.45-3.95-9.09-6.88-13.92-8.79-13.29-5.25-26.71-5.3-40.26-.17-12.29,4.65-21.51,13.01-27.66,25.08-8.35,16.37-7.36,36.61,2.25,52.03,9.63,15.45,25.89,24.25,44.13,24.94,13.58.51,25.62-3.69,36.13-12.62.11-.1.13-.21.04-.32l-4.35-6.09c-.12-.17-.26-.19-.43-.05-14.65,12.69-37.5,13.56-53.35,3.17-13.7-8.99-20.79-23.59-19.64-40.16.47-6.78,2.1-12.85,4.87-18.22,6.32-12.23,16.18-19.5,29.57-21.83,13.65-2.37,25.44.45,35.39,8.48" vector-effect="non-scaling-stroke"/>
    <path class="cls-3" d="M751.5,141.29c1.63,0,3.11-.04,4.44-.13.29-.01.44-.17.44-.47V48.39c0-.2.16-.36.36-.36h28.59c.41,0,.61-.2.61-.61v-7.46c0-.42-.21-.63-.64-.63-9.09-.03-20.35-.04-33.78-.04-13.43,0-24.69,0-33.78.02-.43,0-.64.21-.64.63v7.46c0,.41.2.61.61.61l28.59.02c.2,0,.36.16.36.36l-.05,92.3c0,.3.15.46.44.47,1.33.09,2.82.13,4.45.13" vector-effect="non-scaling-stroke"/>
    <path class="cls-3" d="M807.13,56.62c0-3.82-3.09-6.91-6.91-6.91h0c-3.82,0-6.91,3.09-6.91,6.91s3.09,6.91,6.91,6.91c3.82,0,6.91-3.09,6.91-6.91h0" vector-effect="non-scaling-stroke"/>
    <path class="cls-3" d="M1322.36,56.61c0-3.82-3.09-6.91-6.91-6.91h0c-3.82,0-6.91,3.09-6.91,6.91s3.09,6.91,6.91,6.91c3.82,0,6.91-3.09,6.91-6.91h0" vector-effect="non-scaling-stroke"/>
    <path class="cls-3" d="M554.35,84.31c.26,0,.47.21.47.47h0s-.03,56.03-.03,56.03c0,.26.21.47.47.47h0l7.97.03c.26,0,.47-.21.47-.47h0v-56.08c0-.26.21-.47.47-.47l14.85.06c.26,0,.47-.21.47-.47l-.03-6.89c0-.26-.21-.47-.47-.47h-14.8c-.26.01-.47-.2-.47-.46h0s0-22.26,0-22.26c0-.26-.21-.47-.47-.47h0l-8,.08c-.26,0-.47.21-.47.47l.03,22.18c0,.26-.21.47-.47.47h-11.05c-.26,0-.47.22-.47.48h0s-.02,6.86-.02,6.86c0,.26.21.47.47.47h0l11.09-.03" vector-effect="non-scaling-stroke"/>
    <path class="cls-3" d="M830.77,75.98c0,.29-.23.52-.52.52h0l-10.95.06c-.28,0-.5.23-.51.51l-.06,6.74c0,.29.23.52.52.52h0l10.97-.02c.29,0,.52.23.52.52h0s-.01,55.98-.01,55.98c0,.29.23.52.52.52,0,0,0,0,.01,0l7.97-.09c.28,0,.51-.24.51-.52l.02-55.88c0-.29.23-.52.52-.52h0l14.71.06c.29,0,.52-.23.52-.52h0s-.02-6.88-.02-6.88c0-.29-.23-.52-.52-.52h0l-14.7.08c-.29,0-.52-.23-.52-.52h0s.04-22.15.04-22.15c0-.29-.23-.52-.52-.52h-8.01c-.29,0-.52.23-.52.52h0s.03,22.11.03,22.11" vector-effect="non-scaling-stroke"/>
    <path class="cls-3" d="M1281.71,84.83c0-.29.23-.52.52-.52h0l14.72.04c.29,0,.52-.23.52-.52h0s-.05-6.82-.05-6.82c0-.29-.23-.52-.52-.52h-14.68c-.29,0-.52-.24-.52-.53h0v-22.12c0-.29-.23-.52-.52-.52l-7.89.03c-.29,0-.52.23-.52.52h0s.02,22.06.02,22.06c0,.29-.22.52-.51.53,0,0,0,0-.01,0l-10.95.1c-.29,0-.52.23-.52.52l-.08,6.71c0,.29.22.52.51.53,0,0,0,0,.01,0h10.98c.29,0,.52.24.52.53h0s.02,55.94.02,55.94c0,.29.23.52.52.52h7.9c.29-.01.52-.24.52-.53v-55.95" vector-effect="non-scaling-stroke"/>
    <path class="cls-3" d="M502.95,93.92c-1.34-3.71-.44-6.88,2.7-9.51,6.47-5.43,16.91-1.54,22.28,3.93.16.16.42.16.58,0,.02-.02.04-.05.06-.08l3.38-5.86c.16-.28.09-.63-.15-.84-3.89-3.37-8.32-5.54-13.27-6.5-9.14-1.77-20.15.99-23.88,10.08-6.77,16.51,10.67,21.79,21.5,27.51,5.71,3.01,9.49,7.19,7.68,14.22-1.31,5.11-5.36,8.02-10.59,8.61-7.89.91-14.69-1.75-20.42-7.98-.08-.09-.16-.09-.24.01l-4.5,5.79c-.14.19-.13.36.04.53,8.41,7.89,17.84,10.8,28.31,8.74,9.63-1.89,15.29-7.43,16.96-16.6.97-5.33-.8-11.55-5.16-15.49-2.69-2.43-4.88-4.04-6.58-4.85-6.59-3.13-11.05-5.3-13.4-6.51-2.8-1.44-4.57-3.17-5.3-5.2" vector-effect="non-scaling-stroke"/>
    <path class="cls-3" d="M1526.06,125.54c-1.15,5.96-4.86,9.27-11.14,9.93-7.84.83-14.54-1.79-20.09-7.85-.1-.11-.26-.11-.37-.02-.01.01-.02.02-.03.04l-4.34,5.58c-.18.23-.15.57.06.77,6.77,6.39,14.58,9.45,23.43,9.18,10.57-.33,19.83-6,21.54-16.98,2.44-15.69-11.41-20.57-22.73-25.87-4.29-2.01-8.71-4.84-7.97-10.4.45-3.38,2.28-5.71,5.49-7,6.75-2.72,14.47.2,19.58,4.97.5.47.92.41,1.26-.18l2.87-4.97c.28-.5.17-1.13-.26-1.49-4.41-3.7-9.51-5.89-15.31-6.57-9.21-1.08-19.21,2.69-22.22,12.12-1.52,4.78-1,9.06,1.57,12.83,1.72,2.52,5.9,5.69,8.69,7.05,5.99,2.93,10.1,4.99,12.31,6.18,4.9,2.63,8.8,6.72,7.66,12.68" vector-effect="non-scaling-stroke"/>
    <path class="cls-3" d="M408.61,107.7c-.63-18.97-16.58-33.84-35.62-33.21-19.04.63-33.97,16.52-33.34,35.49,0,0,0,0,0,0,.63,18.97,16.58,33.84,35.62,33.21,19.04-.63,33.97-16.52,33.34-35.49h0" vector-effect="non-scaling-stroke"/>
    <path class="cls-3" d="M465.76,105.03c-1.35-.95-2.6-2.2-3.97-2.9-8.88-4.47-18.03-5-27.46-1.59-9.2,3.33-15.77,10.59-15.03,20.72.8,10.76,8,18.19,18.46,20.74,5.15,1.26,11.22,1.38,18.19.37,6.81-.99,12.89-3.55,18.24-7.66.61-.47.92-1.21.92-2.2.02-11.97.02-22.64.01-32.01,0-7.71-.8-15.11-6.81-20.52-2.67-2.41-6.51-3.98-11.5-4.72-10.18-1.51-19.89-.2-29.13,3.93-.49.22-.6.57-.33,1.04l3.19,5.54c.16.27.5.38.79.25,8.1-3.57,21.35-5.73,29.01-.52,3.09,2.09,4.92,4.73,5.5,7.9.61,3.37.73,7.18.35,11.43-.03.31-.17.38-.43.2" vector-effect="non-scaling-stroke"/>
    <path class="cls-3" d="M632.16,104.97c0,.12-.11.22-.23.21-.05,0-.09-.02-.13-.05-3.87-3.3-8.34-5.38-13.42-6.23-10.73-1.79-23.61,1.14-30.17,10.54-3.84,5.52-3.84,12.91-1.34,18.97,7.22,17.44,30.98,16.86,45.15,11.09,2.83-1.15,5.56-2.78,8.19-4.88.26-.21.43-.47.5-.8.27-1.12.41-2.23.4-3.32-.11-16.68-.14-27.1-.09-31.25.03-3.03-.3-6.16-1.01-9.39-4.35-19.86-33.14-16.79-46.47-10.64-.48.21-.59.55-.33,1.01l3.28,5.66c.14.25.34.31.6.2,8.29-3.66,22.41-6.09,30.02.04,3.17,2.55,4.83,5.74,4.99,9.55.11,2.72.13,5.82.06,9.29" vector-effect="non-scaling-stroke"/>
    <path class="cls-3" d="M905.01,109.5h52.19c.28,0,.51-.22.52-.5.48-19.2-9.87-35.23-30.95-34.29-14.96.67-26.29,9.55-29.91,23.84-2.94,11.57-1.19,24.05,6.49,33.27,8.91,10.71,23.72,13.18,37.24,9.74,5.77-1.47,10.65-4.29,14.64-8.46.43-.45.46-.92.1-1.43l-2.99-4.19c-.38-.53-.81-.57-1.28-.11-5.35,5.29-12.11,7.92-20.27,7.88-15.36-.08-26.25-9.72-26.07-25.45,0-.17.13-.3.29-.3h0" vector-effect="non-scaling-stroke"/>
    <path class="cls-3" d="M1145.54,108.72c-.07-18.98-15.57-34.31-34.63-34.24-19.06.07-34.46,15.5-34.39,34.48,0,0,0,0,0,0,.07,18.98,15.57,34.31,34.63,34.24h0c19.06-.07,34.46-15.5,34.39-34.48h0" vector-effect="non-scaling-stroke"/>
    <path class="cls-3" d="M1405.41,107.15c-.93-18.95-17.11-33.56-36.14-32.63h0c-19.03.93-33.71,17.05-32.78,36,.93,18.95,17.11,33.56,36.14,32.63h0c19.03-.93,33.71-17.05,32.78-36" vector-effect="non-scaling-stroke"/>
    <path class="cls-3" d="M1430.79,82.28v-4.52c0-.95-.47-1.42-1.42-1.42h-6.1c-.95,0-1.42.5-1.42,1.5v63.07c0,.21.17.38.38.38h8.29c.15,0,.28-.13.28-.28h0c-.05-18.01-.06-33.73-.02-47.18.01-2.38.56-2.93,2.25-4.29,5.57-4.51,11.72-6.64,18.47-6.39,12.26.44,15.62,8.08,15.63,19.16.02,11.9.02,24.67,0,38.32,0,.45.22.67.67.67h7.65c.4,0,.6-.2.6-.6.05-25.59.07-39.24.08-40.95.02-3.91-.41-7.44-1.29-10.58-2.22-7.89-7.48-12.55-15.79-13.98-8.96-1.53-18.41.24-25.61,5.86-1.17.91-1.88,1.42-2.13,1.55-.35.17-.52.07-.52-.32" vector-effect="non-scaling-stroke"/>
    <path class="cls-3" d="M804.54,76.8c0-.23-.19-.42-.42-.42h-8.12c-.23,0-.42.19-.42.42v64c0,.23.19.42.42.42h8.12c.23,0,.42-.19.42-.42v-64" vector-effect="non-scaling-stroke"/>
    <path class="cls-3" d="M1237.63,130.43c-5.97,4.48-15.73,5.47-22.61,4.1-10.49-2.08-13.56-10.5-13.38-20.03.05-2.4.05-14.95,0-37.64,0-.25-.2-.45-.45-.45h-7.94c-.33,0-.5.17-.51.5-.05,11.02-.07,22.13-.04,33.34.02,7.59.2,12.23.54,13.94,1.03,5.11,3.49,9.33,7.38,12.67,6.66,5.71,15.94,6.79,24.75,6,8.67-.78,15.86-3.64,21.58-8.57.23-.2.37-.49.37-.8v-56.77c0-.17-.14-.31-.31-.31h-8.29c-.27,0-.41.14-.41.41v52.26c0,.53-.25,1.03-.68,1.35" vector-effect="non-scaling-stroke"/>
    <path class="cls-3" d="M1319.76,76.79c0-.22-.18-.4-.4-.4h-8.18c-.22,0-.4.18-.4.4h0v64.04c0,.22.18.4.4.4h8.18c.22,0,.4-.18.4-.4h0v-64.04" vector-effect="non-scaling-stroke"/>
    <path class="cls-3" d="M377.08,135.17c13.88-1.61,23.77-14.68,22.09-29.2-1.68-14.52-14.29-24.99-28.17-23.39h0c-13.88,1.61-23.77,14.68-22.09,29.2,1.68,14.52,14.29,24.99,28.17,23.39" vector-effect="non-scaling-stroke"/>
    <path class="cls-3" d="M431.97,129.27c7.35,9.06,23.92,7.12,32.8,1.9,1.53-.9,1.54-1.72,1.55-3.42,0-2.79-.01-7.06-.04-12.81-.01-2.01-.89-2.69-2.34-3.75-4.04-2.95-8.42-4.75-13.15-5.38-8.46-1.12-20.61,2.04-22.01,11.93-.61,4.31.45,8.15,3.19,11.53" vector-effect="non-scaling-stroke"/>
    <path class="cls-3" d="M628.96,110.5c-5.13-3.1-9.91-4.74-14.34-4.91-7.72-.3-18.19,2.82-19.85,11.45-1.74,9.05,4.61,16.42,13.49,17.95,8.36,1.43,16.05.03,23.06-4.22.53-.32.85-.88.86-1.5.01-2,.05-6.51.1-13.54.01-2.14-1.09-3.88-3.32-5.23" vector-effect="non-scaling-stroke"/>
    <path class="cls-3" d="M905.54,102.25h42.69c.16,0,.29-.12.29-.28,0-.01,0-.03,0-.04-.49-3.41-1.49-6.59-3.01-9.52-4.99-9.63-16.75-12.06-26.26-8.42-8.15,3.13-12.84,9.09-14.05,17.87-.02.19.11.37.3.39.01,0,.03,0,.04,0" vector-effect="non-scaling-stroke"/>
    <path class="cls-3" d="M1113.77,135.19c13.89-1.51,23.86-14.51,22.28-29.05h0c-1.58-14.53-14.12-25.09-28-23.58h0c-13.89,1.51-23.86,14.51-22.28,29.05h0c1.58,14.53,14.12,25.09,28,23.58" vector-effect="non-scaling-stroke"/>
    <path class="cls-3" d="M1373.62,135.2c13.89-1.46,23.91-14.43,22.39-28.96-1.53-14.53-14.03-25.13-27.92-23.67-13.89,1.46-23.91,14.43-22.39,28.96h0c1.53,14.53,14.03,25.13,27.92,23.67h0" vector-effect="non-scaling-stroke"/>
  </g>
  <path class="cls-2" d="M1536,0v154H278c-3.89-2.54-7.73-5.08-11.54-7.62-5.05-3.37-8.74-6.12-11.06-8.26-6.81-6.28-12.01-13.91-15.6-22.9-1.44-3.59-2.78-8.29-4.03-14.08-.51-2.39-.72-4.66-.61-6.81.15-2.93.15-5.22.02-6.89-.25-3.25.09-6.64,1.02-10.18,1.34-5.05,2.83-8.99,4.46-11.8,6.66-11.45,15.79-21,27.38-28.67,3.71-2.45,7.62-4.13,11.74-5.02,11.35-2.48,22.83-2.47,34.45.04,4.23.91,8.31,2.33,12.26,4.26,2.38,1.17,4.15,2.01,5.3,2.54,1.13.51,1.36.25.68-.79-9.12-13.98-22.31-24.89-38.06-30.42-7.75-2.72-16.79-3.89-25.4-4.39-11.71-.67-23.55-.36-35.51.93-5.9.64-12.04,1.85-18.43,3.63-19.87,5.53-38.17,14.14-54.9,25.85-8.43,5.9-16.53,12.14-24.28,18.72-11.26,9.56-22.11,19.29-32.54,29.2-12.17,11.56-22.6,21.37-31.31,29.44-7.85,7.27-14.99,13.46-21.42,18.57-8.22,6.52-14.88,11.2-19.98,14.03-6.47,3.59-10.51,5.97-12.14,7.13-.51.36-.82.78-.93,1.26-.06.28.11.56.39.62.08.02.16.02.24,0,5.78-1.42,11.21-2.99,16.28-4.71,8.45-2.88,16.18-7.15,23.17-12.8,7.47-6.04,12.92-10.67,16.35-13.88,14.81-13.89,25.05-23.24,30.72-28.04,12.56-10.61,25.71-20.49,39.91-26.82,23.26-10.37,55.12-13.5,77.08,2.19,4.52,3.23,7.85,7.1,10,11.61.26.55.37.92.34,1.1-.13.75-.59.91-1.38.46-2.73-1.55-5.1-2.58-7.12-3.1-8.08-2.09-18.92-2.29-27.04.65-11.16,4.05-18.54,12.04-22.15,23.98-.74,2.46-1.17,5.71-1.28,9.74-.13,4.91-.04,8.2.28,9.86,2.61,13.38,10.09,22.84,22.42,28.37,2.77,1.24,5.68,1.98,8.72,2.21,4.17.33,8.35.59,12.54.79h-78.61c.45-.25.18-.76-.79-1.51-.48-.37-.86-.73-1.15-1.07-2.13-2.59-3.68-4.74-4.65-6.43-3.4-5.92-4-11.82-1.8-17.71,3.29-8.81,13.34-14.77,22.58-12.65,1.67.38,3.45.79,5.36,1.23,1.15.27,1.25.06.28-.62-3.1-2.19-6.1-5.3-9.78-6.67-2.66-.99-4.56-1.5-5.7-1.51-6.46-.06-10.22-.06-11.29,0-3.25.15-6.6.77-10.05,1.86-7.29,2.31-13.93,5.77-19.9,10.39-4.89,3.79-7.43,5.71-11.03,8.99-9.6,8.74-18.58,16.75-26.94,24.04-.23.2-.84.51-1.81.93-.41.18-.41.34.02.49l.72.25H0V0h1536ZM670.38,31.19c0-.3-.25-.55-.55-.55h-7.92c-.3,0-.55.25-.55.55v109.5c0,.3.25.55.55.55h7.92c.3,0,.55-.25.55-.55V31.19ZM1171.65,31.06c0-.22-.17-.39-.39-.39h-8.1c-.22,0-.39.17-.39.39h0v109.8c0,.22.17.39.39.39h8.1c.22,0,.39-.17.39-.39h0V31.06ZM878.15,31.2c0-.31-.25-.56-.56-.56h-7.82c-.31,0-.56.25-.56.56v109.46c0,.31.25.56.56.56h7.82c.31,0,.56-.25.56-.56V31.2ZM1055.05,54.13c.11.1.2.09.29-.03l5.26-6.78c.09-.11.07-.27-.03-.36-10.27-8.93-21.7-11.81-34.28-8.64-13.16,3.32-21.42,14.57-19.52,28.23.78,5.61,3.33,10.2,7.64,13.79,3.07,2.55,5.78,4.43,8.15,5.63,10.59,5.37,15.89,8.06,15.91,8.07,7.5,4.27,13.69,9.33,14.79,18.41.93,7.67-1.46,13.6-7.15,17.77-2.72,1.99-5.99,3.24-9.81,3.73-10.88,1.41-22.15-2.69-29.38-10.8-.41-.46-.8-.45-1.17.04l-4.64,5.98c-.37.47-.33.91.12,1.31.93.84,2.09,2.22,3.06,2.97,8.87,6.79,18.76,10.01,29.67,9.66,7.22-.23,15.53-3.19,20.62-7.78,7.93-7.15,10.82-16.18,8.66-27.08-.99-5.01-3.16-9.28-6.5-12.81-2.77-2.93-5.35-5.1-7.75-6.51-3.61-2.12-9.41-5.12-17.42-8.99-7.51-3.64-15.8-9.34-14.93-18.83.67-7.36,4.63-12.08,11.86-14.16,9.75-2.81,18.6-.41,26.55,7.18ZM323.27,55.5c.32.26.93.78,1.83,1.57.33.29.64.27.91-.08l4.58-5.92c.24-.31.2-.76-.09-1.02-4.45-3.95-9.09-6.88-13.92-8.79-13.29-5.25-26.71-5.3-40.26-.17-12.29,4.65-21.51,13.01-27.66,25.08-8.35,16.37-7.36,36.61,2.25,52.03,9.63,15.45,25.89,24.25,44.13,24.94,13.58.51,25.62-3.69,36.13-12.62.11-.1.13-.21.04-.32l-4.35-6.09c-.12-.17-.26-.19-.43-.05-14.65,12.69-37.5,13.56-53.35,3.17-13.7-8.99-20.79-23.59-19.64-40.16.47-6.78,2.1-12.85,4.87-18.22,6.32-12.23,16.18-19.5,29.57-21.83,13.65-2.37,25.44.45,35.39,8.48ZM751.5,141.29c1.63,0,3.11-.04,4.44-.13.29-.01.44-.17.44-.47V48.39c0-.2.16-.36.36-.36h28.59c.41,0,.61-.2.61-.61v-7.46c0-.42-.21-.63-.64-.63-9.09-.03-20.35-.04-33.78-.04-13.43,0-24.69,0-33.78.02-.43,0-.64.21-.64.63v7.46c0,.41.2.61.61.61l28.59.02c.2,0,.36.16.36.36l-.05,92.3c0,.3.15.46.44.47,1.33.09,2.82.13,4.45.13ZM807.13,56.62c0-3.82-3.09-6.91-6.91-6.91h0c-3.82,0-6.91,3.09-6.91,6.91s3.09,6.91,6.91,6.91c3.82,0,6.91-3.09,6.91-6.91h0ZM1322.36,56.61c0-3.82-3.09-6.91-6.91-6.91h0c-3.82,0-6.91,3.09-6.91,6.91s3.09,6.91,6.91,6.91c3.82,0,6.91-3.09,6.91-6.91h0ZM554.35,84.31c.26,0,.47.21.47.47h0s-.03,56.03-.03,56.03c0,.26.21.47.47.47h0l7.97.03c.26,0,.47-.21.47-.47h0v-56.08c0-.26.21-.47.47-.47l14.85.06c.26,0,.47-.21.47-.47l-.03-6.89c0-.26-.21-.47-.47-.47h-14.8c-.26.01-.47-.2-.47-.46h0s0-22.26,0-22.26c0-.26-.21-.47-.47-.47h0l-8,.08c-.26,0-.47.21-.47.47l.03,22.18c0,.26-.21.47-.47.47h-11.05c-.26,0-.47.22-.47.48h0s-.02,6.86-.02,6.86c0,.26.21.47.47.47h0l11.09-.03ZM830.77,75.98c0,.29-.23.52-.52.52h0l-10.95.06c-.28,0-.5.23-.51.51l-.06,6.74c0,.29.23.52.52.52h0l10.97-.02c.29,0,.52.23.52.52h0s-.01,55.98-.01,55.98c0,.29.23.52.52.52,0,0,0,0,.01,0l7.97-.09c.28,0,.51-.24.51-.52l.02-55.88c0-.29.23-.52.52-.52h0l14.71.06c.29,0,.52-.23.52-.52h0s-.02-6.88-.02-6.88c0-.29-.23-.52-.52-.52h0l-14.7.08c-.29,0-.52-.23-.52-.52h0s.04-22.15.04-22.15c0-.29-.23-.52-.52-.52h-8.01c-.29,0-.52.23-.52.52h0s.03,22.11.03,22.11ZM1281.71,84.83c0-.29.23-.52.52-.52h0l14.72.04c.29,0,.52-.23.52-.52h0s-.05-6.82-.05-6.82c0-.29-.23-.52-.52-.52h-14.68c-.29,0-.52-.24-.52-.53h0v-22.12c0-.29-.23-.52-.52-.52l-7.89.03c-.29,0-.52.23-.52.52h0s.02,22.06.02,22.06c0,.29-.22.52-.51.53,0,0,0,0-.01,0l-10.95.1c-.29,0-.52.23-.52.52l-.08,6.71c0,.29.22.52.51.53,0,0,0,0,.01,0h10.98c.29,0,.52.24.52.53h0s.02,55.94.02,55.94c0,.29.23.52.52.52h7.9c.29-.01.52-.24.52-.53v-55.95ZM502.95,93.92c-1.34-3.71-.44-6.88,2.7-9.51,6.47-5.43,16.91-1.54,22.28,3.93.16.16.42.16.58,0,.02-.02.04-.05.06-.08l3.38-5.86c.16-.28.09-.63-.15-.84-3.89-3.37-8.32-5.54-13.27-6.5-9.14-1.77-20.15.99-23.88,10.08-6.77,16.51,10.67,21.79,21.5,27.51,5.71,3.01,9.49,7.19,7.68,14.22-1.31,5.11-5.36,8.02-10.59,8.61-7.89.91-14.69-1.75-20.42-7.98-.08-.09-.16-.09-.24.01l-4.5,5.79c-.14.19-.13.36.04.53,8.41,7.89,17.84,10.8,28.31,8.74,9.63-1.89,15.29-7.43,16.96-16.6.97-5.33-.8-11.55-5.16-15.49-2.69-2.43-4.88-4.04-6.58-4.85-6.59-3.13-11.05-5.3-13.4-6.51-2.8-1.44-4.57-3.17-5.3-5.2ZM1526.06,125.54c-1.15,5.96-4.86,9.27-11.14,9.93-7.84.83-14.54-1.79-20.09-7.85-.1-.11-.26-.11-.37-.02-.01.01-.02.02-.03.04l-4.34,5.58c-.18.23-.15.57.06.77,6.77,6.39,14.58,9.45,23.43,9.18,10.57-.33,19.83-6,21.54-16.98,2.44-15.69-11.41-20.57-22.73-25.87-4.29-2.01-8.71-4.84-7.97-10.4.45-3.38,2.28-5.71,5.49-7,6.75-2.72,14.47.2,19.58,4.97.5.47.92.41,1.26-.18l2.87-4.97c.28-.5.17-1.13-.26-1.49-4.41-3.7-9.51-5.89-15.31-6.57-9.21-1.08-19.21,2.69-22.22,12.12-1.52,4.78-1,9.06,1.57,12.83,1.72,2.52,5.9,5.69,8.69,7.05,5.99,2.93,10.1,4.99,12.31,6.18,4.9,2.63,8.8,6.72,7.66,12.68ZM408.61,107.7c-.63-18.97-16.58-33.84-35.62-33.21-19.04.63-33.97,16.52-33.34,35.49,0,0,0,0,0,0,.63,18.97,16.58,33.84,35.62,33.21,19.04-.63,33.97-16.52,33.34-35.49h0ZM465.76,105.03c-1.35-.95-2.6-2.2-3.97-2.9-8.88-4.47-18.03-5-27.46-1.59-9.2,3.33-15.77,10.59-15.03,20.72.8,10.76,8,18.19,18.46,20.74,5.15,1.26,11.22,1.38,18.19.37,6.81-.99,12.89-3.55,18.24-7.66.61-.47.92-1.21.92-2.2.02-11.97.02-22.64.01-32.01,0-7.71-.8-15.11-6.81-20.52-2.67-2.41-6.51-3.98-11.5-4.72-10.18-1.51-19.89-.2-29.13,3.93-.49.22-.6.57-.33,1.04l3.19,5.54c.16.27.5.38.79.25,8.1-3.57,21.35-5.73,29.01-.52,3.09,2.09,4.92,4.73,5.5,7.9.61,3.37.73,7.18.35,11.43-.03.31-.17.38-.43.2ZM632.16,104.97c0,.12-.11.22-.23.21-.05,0-.09-.02-.13-.05-3.87-3.3-8.34-5.38-13.42-6.23-10.73-1.79-23.61,1.14-30.17,10.54-3.84,5.52-3.84,12.91-1.34,18.97,7.22,17.44,30.98,16.86,45.15,11.09,2.83-1.15,5.56-2.78,8.19-4.88.26-.21.43-.47.5-.8.27-1.12.41-2.23.4-3.32-.11-16.68-.14-27.1-.09-31.25.03-3.03-.3-6.16-1.01-9.39-4.35-19.86-33.14-16.79-46.47-10.64-.48.21-.59.55-.33,1.01l3.28,5.66c.14.25.34.31.6.2,8.29-3.66,22.41-6.09,30.02.04,3.17,2.55,4.83,5.74,4.99,9.55.11,2.72.13,5.82.06,9.29ZM905.01,109.5h52.19c.28,0,.51-.22.52-.5.48-19.2-9.87-35.23-30.95-34.29-14.96.67-26.29,9.55-29.91,23.84-2.94,11.57-1.19,24.05,6.49,33.27,8.91,10.71,23.72,13.18,37.24,9.74,5.77-1.47,10.65-4.29,14.64-8.46.43-.45.46-.92.1-1.43l-2.99-4.19c-.38-.53-.81-.57-1.28-.11-5.35,5.29-12.11,7.92-20.27,7.88-15.36-.08-26.25-9.72-26.07-25.45,0-.17.13-.3.29-.3h0ZM1145.54,108.72c-.07-18.98-15.57-34.31-34.63-34.24-19.06.07-34.46,15.5-34.39,34.48,0,0,0,0,0,0,.07,18.98,15.57,34.31,34.63,34.24h0c19.06-.07,34.46-15.5,34.39-34.48h0ZM1405.41,107.15c-.93-18.95-17.11-33.56-36.14-32.63h0c-19.03.93-33.71,17.05-32.78,36,.93,18.95,17.11,33.56,36.14,32.63h0c19.03-.93,33.71-17.05,32.78-36ZM1430.79,82.28v-4.52c0-.95-.47-1.42-1.42-1.42h-6.1c-.95,0-1.42.5-1.42,1.5v63.07c0,.21.17.38.38.38h8.29c.15,0,.28-.13.28-.28h0c-.05-18.01-.06-33.73-.02-47.18.01-2.38.56-2.93,2.25-4.29,5.57-4.51,11.72-6.64,18.47-6.39,12.26.44,15.62,8.08,15.63,19.16.02,11.9.02,24.67,0,38.32,0,.45.22.67.67.67h7.65c.4,0,.6-.2.6-.6.05-25.59.07-39.24.08-40.95.02-3.91-.41-7.44-1.29-10.58-2.22-7.89-7.48-12.55-15.79-13.98-8.96-1.53-18.41.24-25.61,5.86-1.17.91-1.88,1.42-2.13,1.55-.35.17-.52.07-.52-.32ZM804.54,76.8c0-.23-.19-.42-.42-.42h-8.12c-.23,0-.42.19-.42.42v64c0,.23.19.42.42.42h8.12c.23,0,.42-.19.42-.42v-64ZM1237.63,130.43c-5.97,4.48-15.73,5.47-22.61,4.1-10.49-2.08-13.56-10.5-13.38-20.03.05-2.4.05-14.95,0-37.64,0-.25-.2-.45-.45-.45h-7.94c-.33,0-.5.17-.51.5-.05,11.02-.07,22.13-.04,33.34.02,7.59.2,12.23.54,13.94,1.03,5.11,3.49,9.33,7.38,12.67,6.66,5.71,15.94,6.79,24.75,6,8.67-.78,15.86-3.64,21.58-8.57.23-.2.37-.49.37-.8v-56.77c0-.17-.14-.31-.31-.31h-8.29c-.27,0-.41.14-.41.41v52.26c0,.53-.25,1.03-.68,1.35ZM1319.76,76.79c0-.22-.18-.4-.4-.4h-8.18c-.22,0-.4.18-.4.4h0v64.04c0,.22.18.4.4.4h8.18c.22,0,.4-.18.4-.4h0v-64.04Z"/>
  <ellipse class="cls-2" cx="374.04" cy="108.88" rx="25.3" ry="26.47" transform="translate(-10.04 43.71) rotate(-6.6)"/>
  <path class="cls-2" d="M905.54,102.25c-.19,0-.34-.15-.34-.35,0-.01,0-.03,0-.04,1.21-8.78,5.9-14.74,14.05-17.87,9.51-3.64,21.27-1.21,26.26,8.42,1.52,2.93,2.52,6.11,3.01,9.52.02.15-.09.3-.25.32-.01,0-.03,0-.04,0h-42.69Z"/>
  <ellipse class="cls-2" cx="1110.91" cy="108.87" rx="25.29" ry="26.47" transform="translate(-5.26 120.61) rotate(-6.2)"/>
  <ellipse class="cls-2" cx="1370.85" cy="108.88" rx="25.29" ry="26.46" transform="translate(-3.87 143.89) rotate(-6)"/>
  <path class="cls-2" d="M431.97,129.27c-2.74-3.38-3.8-7.22-3.19-11.53,1.4-9.89,13.55-13.05,22.01-11.93,4.73.63,9.11,2.43,13.15,5.38,1.45,1.06,2.33,1.74,2.34,3.75.03,5.75.04,10.02.04,12.81-.01,1.7-.02,2.52-1.55,3.42-8.88,5.22-25.45,7.16-32.8-1.9Z"/>
  <path class="cls-2" d="M628.96,110.5c2.23,1.35,3.33,3.09,3.32,5.23-.05,7.03-.09,11.54-.1,13.54,0,.62-.33,1.18-.86,1.5-7.01,4.25-14.7,5.65-23.06,4.22-8.88-1.53-15.23-8.9-13.49-17.95,1.66-8.63,12.13-11.75,19.85-11.45,4.43.17,9.21,1.81,14.34,4.91Z"/>
  <path class="cls-5" d="M278,154h-60.96c-4.19-.2-8.37-.46-12.54-.79-3.04-.23-5.95-.97-8.72-2.21-12.33-5.53-19.81-14.99-22.42-28.37-.32-1.66-.41-4.95-.28-9.86.11-4.03.54-7.28,1.28-9.74,3.61-11.94,10.99-19.93,22.15-23.98,8.12-2.94,18.96-2.74,27.04-.65,2.02.52,4.39,1.55,7.12,3.1.79.45,1.25.29,1.38-.46.03-.18-.08-.55-.34-1.1-2.15-4.51-5.48-8.38-10-11.61-21.96-15.69-53.82-12.56-77.08-2.19-14.2,6.33-27.35,16.21-39.91,26.82-5.67,4.8-15.91,14.15-30.72,28.04-3.43,3.21-8.88,7.84-16.35,13.88-6.99,5.65-14.72,9.92-23.17,12.8-5.07,1.72-10.5,3.29-16.28,4.71-.28.07-.56-.1-.63-.38-.02-.08-.02-.16,0-.24.11-.48.42-.9.93-1.26,1.63-1.16,5.67-3.54,12.14-7.13,5.1-2.83,11.76-7.51,19.98-14.03,6.43-5.11,13.57-11.3,21.42-18.57,8.71-8.07,19.14-17.88,31.31-29.44,10.43-9.91,21.28-19.64,32.54-29.2,7.75-6.58,15.85-12.82,24.28-18.72,16.73-11.71,35.03-20.32,54.9-25.85,6.39-1.78,12.53-2.99,18.43-3.63,11.96-1.29,23.8-1.6,35.51-.93,8.61.5,17.65,1.67,25.4,4.39,15.75,5.53,28.94,16.44,38.06,30.42.68,1.04.45,1.3-.68.79-1.15-.53-2.92-1.37-5.3-2.54-3.95-1.93-8.03-3.35-12.26-4.26-11.62-2.51-23.1-2.52-34.45-.04-4.12.89-8.03,2.57-11.74,5.02-11.59,7.67-20.72,17.22-27.38,28.67-1.63,2.81-3.12,6.75-4.46,11.8-.93,3.54-1.27,6.93-1.02,10.18.13,1.67.13,3.96-.02,6.89-.11,2.15.1,4.42.61,6.81,1.25,5.79,2.59,10.49,4.03,14.08,3.59,8.99,8.79,16.62,15.6,22.9,2.32,2.14,6.01,4.89,11.06,8.26,3.81,2.54,7.65,5.08,11.54,7.62Z"/>
  <rect class="cls-5" x="661.36" y="30.64" width="9.02" height="110.6" rx=".55" ry=".55"/>
  <rect class="cls-5" x="1162.77" y="30.67" width="8.88" height="110.58" rx=".39" ry=".39"/>
  <rect class="cls-5" x="869.21" y="30.64" width="8.94" height="110.58" rx=".56" ry=".56"/>
  <path class="cls-5" d="M1055.05,54.13c-7.95-7.59-16.8-9.99-26.55-7.18-7.23,2.08-11.19,6.8-11.86,14.16-.87,9.49,7.42,15.19,14.93,18.83,8.01,3.87,13.81,6.87,17.42,8.99,2.4,1.41,4.98,3.58,7.75,6.51,3.34,3.53,5.51,7.8,6.5,12.81,2.16,10.9-.73,19.93-8.66,27.08-5.09,4.59-13.4,7.55-20.62,7.78-10.91.35-20.8-2.87-29.67-9.66-.97-.75-2.13-2.13-3.06-2.97-.45-.4-.49-.84-.12-1.31l4.64-5.98c.37-.49.76-.5,1.17-.04,7.23,8.11,18.5,12.21,29.38,10.8,3.82-.49,7.09-1.74,9.81-3.73,5.69-4.17,8.08-10.1,7.15-17.77-1.1-9.08-7.29-14.14-14.79-18.41-.02-.01-5.32-2.7-15.91-8.07-2.37-1.2-5.08-3.08-8.15-5.63-4.31-3.59-6.86-8.18-7.64-13.79-1.9-13.66,6.36-24.91,19.52-28.23,12.58-3.17,24.01-.29,34.28,8.64.1.09.12.25.03.36l-5.26,6.78c-.09.12-.18.13-.29.03Z"/>
  <path class="cls-5" d="M323.27,55.5c-9.95-8.03-21.74-10.85-35.39-8.48-13.39,2.33-23.25,9.6-29.57,21.83-2.77,5.37-4.4,11.44-4.87,18.22-1.15,16.57,5.94,31.17,19.64,40.16,15.85,10.39,38.7,9.52,53.35-3.17.17-.14.31-.12.43.05l4.35,6.09c.09.11.07.22-.04.32-10.51,8.93-22.55,13.13-36.13,12.62-18.24-.69-34.5-9.49-44.13-24.94-9.61-15.42-10.6-35.66-2.25-52.03,6.15-12.07,15.37-20.43,27.66-25.08,13.55-5.13,26.97-5.08,40.26.17,4.83,1.91,9.47,4.84,13.92,8.79.29.26.33.71.09,1.02l-4.58,5.92c-.27.35-.58.37-.91.08-.9-.79-1.51-1.31-1.83-1.57Z"/>
  <path class="cls-5" d="M751.52,39.29c13.43,0,24.69.01,33.78.04.43,0,.64.21.64.63v7.46c0,.41-.2.61-.61.61h-28.59c-.2,0-.36.16-.36.36v92.3c0,.3-.15.46-.44.47-1.33.09-2.81.13-4.44.13s-3.12-.04-4.45-.13c-.29-.01-.44-.17-.44-.47l.05-92.3c0-.2-.16-.36-.36-.36l-28.59-.02c-.41,0-.61-.2-.61-.61v-7.46c0-.42.21-.63.64-.63,9.09-.02,20.35-.03,33.78-.02Z"/>
  <circle class="cls-5" cx="800.22" cy="56.62" r="6.91"/>
  <circle class="cls-5" cx="1315.45" cy="56.61" r="6.91"/>
  <path class="cls-5" d="M554.35,84.31l-11.09.03c-.26,0-.47-.21-.47-.47h0s.02-6.86.02-6.86c0-.26.21-.47.47-.47h11.05c.26-.01.47-.22.47-.48l-.03-22.18c0-.26.21-.47.47-.47l8-.08c.26,0,.47.21.47.47h0s0,22.26,0,22.26c0,.26.21.47.47.47h14.8c.26-.01.47.2.47.46h0s.03,6.89.03,6.89c0,.26-.21.47-.47.47l-14.85-.06c-.26,0-.47.21-.47.47v56.08c0,.26-.21.47-.47.47h0l-7.97-.03c-.26,0-.47-.21-.47-.47h0s.03-56.03.03-56.03c0-.26-.21-.47-.47-.47h0Z"/>
  <path class="cls-5" d="M830.77,75.98l-.03-22.11c0-.29.23-.52.52-.52h8.01c.29,0,.52.23.52.52l-.04,22.15c0,.29.23.52.52.52h0l14.7-.08c.29,0,.52.23.52.52h0s.02,6.88.02,6.88c0,.29-.23.52-.52.52h0l-14.71-.06c-.29,0-.52.23-.52.52h0s-.02,55.88-.02,55.88c0,.28-.23.51-.51.52l-7.97.09c-.29,0-.52-.22-.53-.51,0,0,0,0,0-.01v-55.98c.01-.29-.22-.52-.51-.52h0l-10.97.02c-.29,0-.52-.23-.52-.52h0s.06-6.74.06-6.74c0-.28.23-.5.51-.51l10.95-.06c.29,0,.52-.23.52-.52h0Z"/>
  <path class="cls-5" d="M1281.71,84.83v55.95c-.01.29-.24.52-.53.52h-7.9c-.29.01-.52-.22-.52-.51h0s-.02-55.94-.02-55.94c0-.29-.23-.52-.52-.52h-10.98c-.29,0-.52-.24-.52-.53,0,0,0,0,0-.01l.08-6.71c0-.29.23-.52.52-.52l10.95-.1c.29,0,.52-.23.52-.52,0,0,0,0,0-.01l-.02-22.06c0-.29.23-.52.52-.52h0l7.89-.03c.29,0,.52.23.52.52v22.12c0,.29.23.52.52.52h14.68c.29,0,.52.24.52.53h0s.05,6.82.05,6.82c0,.29-.23.52-.52.52h0l-14.72-.04c-.29,0-.52.23-.52.52h0Z"/>
  <path class="cls-5" d="M502.95,93.92c.73,2.03,2.5,3.76,5.3,5.2,2.35,1.21,6.81,3.38,13.4,6.51,1.7.81,3.89,2.42,6.58,4.85,4.36,3.94,6.13,10.16,5.16,15.49-1.67,9.17-7.33,14.71-16.96,16.6-10.47,2.06-19.9-.85-28.31-8.74-.17-.17-.18-.34-.04-.53l4.5-5.79c.08-.1.16-.1.24-.01,5.73,6.23,12.53,8.89,20.42,7.98,5.23-.59,9.28-3.5,10.59-8.61,1.81-7.03-1.97-11.21-7.68-14.22-10.83-5.72-28.27-11-21.5-27.51,3.73-9.09,14.74-11.85,23.88-10.08,4.95.96,9.38,3.13,13.27,6.5.24.21.31.56.15.84l-3.38,5.86c-.12.19-.37.26-.56.14-.03-.02-.05-.04-.08-.06-5.37-5.47-15.81-9.36-22.28-3.93-3.14,2.63-4.04,5.8-2.7,9.51Z"/>
  <path class="cls-5" d="M1526.06,125.54c1.14-5.96-2.76-10.05-7.66-12.68-2.21-1.19-6.32-3.25-12.31-6.18-2.79-1.36-6.97-4.53-8.69-7.05-2.57-3.77-3.09-8.05-1.57-12.83,3.01-9.43,13.01-13.2,22.22-12.12,5.8.68,10.9,2.87,15.31,6.57.43.36.54.99.26,1.49l-2.87,4.97c-.34.59-.76.65-1.26.18-5.11-4.77-12.83-7.69-19.58-4.97-3.21,1.29-5.04,3.62-5.49,7-.74,5.56,3.68,8.39,7.97,10.4,11.32,5.3,25.17,10.18,22.73,25.87-1.71,10.98-10.97,16.65-21.54,16.98-8.85.27-16.66-2.79-23.43-9.18-.21-.2-.24-.54-.06-.77l4.34-5.58c.09-.12.25-.14.36-.05.01,0,.03.02.04.03,5.55,6.06,12.25,8.68,20.09,7.85,6.28-.66,9.99-3.97,11.14-9.93Z"/>
  <path class="cls-5" d="M408.61,107.7c.63,18.97-14.3,34.86-33.34,35.5h0c-19.04.63-34.99-14.24-35.62-33.21-.63-18.97,14.3-34.86,33.34-35.5h0c19.04-.63,34.99,14.24,35.62,33.21ZM377.08,135.17c13.88-1.61,23.77-14.68,22.09-29.2-1.68-14.52-14.29-24.99-28.17-23.39h0c-13.88,1.61-23.77,14.68-22.09,29.2,1.68,14.52,14.29,24.99,28.17,23.39Z"/>
  <path class="cls-5" d="M466.19,104.83c.38-4.25.26-8.06-.35-11.43-.58-3.17-2.41-5.81-5.5-7.9-7.66-5.21-20.91-3.05-29.01.52-.29.13-.63.02-.79-.25l-3.19-5.54c-.27-.47-.16-.82.33-1.04,9.24-4.13,18.95-5.44,29.13-3.93,4.99.74,8.83,2.31,11.5,4.72,6.01,5.41,6.81,12.81,6.81,20.52.01,9.37.01,20.04-.01,32.01,0,.99-.31,1.73-.92,2.2-5.35,4.11-11.43,6.67-18.24,7.66-6.97,1.01-13.04.89-18.19-.37-10.46-2.55-17.66-9.98-18.46-20.74-.74-10.13,5.83-17.39,15.03-20.72,9.43-3.41,18.58-2.88,27.46,1.59,1.37.7,2.62,1.95,3.97,2.9.26.18.4.11.43-.2ZM431.97,129.27c7.35,9.06,23.92,7.12,32.8,1.9,1.53-.9,1.54-1.72,1.55-3.42,0-2.79-.01-7.06-.04-12.81-.01-2.01-.89-2.69-2.34-3.75-4.04-2.95-8.42-4.75-13.15-5.38-8.46-1.12-20.61,2.04-22.01,11.93-.61,4.31.45,8.15,3.19,11.53Z"/>
  <path class="cls-5" d="M632.16,104.97c.07-3.47.05-6.57-.06-9.29-.16-3.81-1.82-7-4.99-9.55-7.61-6.13-21.73-3.7-30.02-.04-.26.11-.46.05-.6-.2l-3.28-5.66c-.26-.46-.15-.8.33-1.01,13.33-6.15,42.12-9.22,46.47,10.64.71,3.23,1.04,6.36,1.01,9.39-.05,4.15-.02,14.57.09,31.25,0,1.09-.13,2.2-.4,3.32-.07.33-.24.59-.5.8-2.63,2.1-5.36,3.73-8.19,4.88-14.17,5.77-37.93,6.35-45.15-11.09-2.5-6.06-2.5-13.45,1.34-18.97,6.56-9.4,19.44-12.33,30.17-10.54,5.08.85,9.55,2.93,13.42,6.23.09.08.23.06.31-.03.03-.04.05-.08.05-.13ZM628.96,110.5c-5.13-3.1-9.91-4.74-14.34-4.91-7.72-.3-18.19,2.82-19.85,11.45-1.74,9.05,4.61,16.42,13.49,17.95,8.36,1.43,16.05.03,23.06-4.22.53-.32.85-.88.86-1.5.01-2,.05-6.51.1-13.54.01-2.14-1.09-3.88-3.32-5.23Z"/>
  <path class="cls-5" d="M905.01,109.5c-.16,0-.29.13-.29.3h0c-.18,15.73,10.71,25.37,26.07,25.45,8.16.04,14.92-2.59,20.27-7.88.47-.46.9-.42,1.28.11l2.99,4.19c.36.51.33.98-.1,1.43-3.99,4.17-8.87,6.99-14.64,8.46-13.52,3.44-28.33.97-37.24-9.74-7.68-9.22-9.43-21.7-6.49-33.27,3.62-14.29,14.95-23.17,29.91-23.84,21.08-.94,31.43,15.09,30.95,34.29,0,.28-.24.5-.52.5h-52.19ZM905.54,102.25h42.69c.16,0,.29-.12.29-.28,0-.01,0-.03,0-.04-.49-3.41-1.49-6.59-3.01-9.52-4.99-9.63-16.75-12.06-26.26-8.42-8.15,3.13-12.84,9.09-14.05,17.87-.02.19.11.37.3.39.01,0,.03,0,.04,0Z"/>
  <path class="cls-5" d="M1145.54,108.72c.07,18.98-15.33,34.41-34.39,34.48h0c-19.06.07-34.56-15.26-34.63-34.24h0c-.07-18.98,15.33-34.41,34.39-34.48t0,0c19.06-.07,34.56,15.26,34.63,34.24ZM1113.77,135.19c13.89-1.51,23.86-14.51,22.28-29.05h0c-1.58-14.53-14.12-25.09-28-23.58h0c-13.89,1.51-23.86,14.51-22.28,29.05h0c1.58,14.53,14.12,25.09,28,23.58Z"/>
  <path class="cls-5" d="M1405.41,107.15c.93,18.95-13.75,35.07-32.78,36-19.03.93-35.21-13.68-36.14-32.63h0c-.93-18.95,13.75-35.07,32.78-36,19.03-.93,35.21,13.68,36.14,32.63h0ZM1373.62,135.2c13.89-1.46,23.91-14.43,22.39-28.96-1.53-14.53-14.03-25.13-27.92-23.67-13.89,1.46-23.91,14.43-22.39,28.96h0c1.53,14.53,14.03,25.13,27.92,23.67h0Z"/>
  <path class="cls-5" d="M1431.31,82.6c.25-.13.96-.64,2.13-1.55,7.2-5.62,16.65-7.39,25.61-5.86,8.31,1.43,13.57,6.09,15.79,13.98.88,3.14,1.31,6.67,1.29,10.58,0,1.71-.03,15.36-.08,40.95,0,.4-.2.6-.6.6h-7.65c-.45,0-.67-.22-.67-.67.02-13.65.02-26.42,0-38.32-.01-11.08-3.37-18.72-15.63-19.16-6.75-.25-12.9,1.88-18.47,6.39-1.69,1.36-2.24,1.91-2.25,4.29-.04,13.45-.03,29.17.02,47.18,0,.15-.13.28-.28.28h-8.29c-.21,0-.38-.17-.38-.38v-63.07c0-1,.47-1.5,1.42-1.5h6.1c.95,0,1.42.47,1.42,1.42v4.52c0,.39.17.49.52.32Z"/>
  <rect class="cls-5" x="795.58" y="76.38" width="8.96" height="64.84" rx=".42" ry=".42"/>
  <path class="cls-5" d="M1237.63,130.43c.43-.32.68-.82.68-1.35v-52.26c0-.27.14-.41.41-.41h8.29c.17,0,.31.14.31.31v56.77c0,.31-.14.6-.37.8-5.72,4.93-12.91,7.79-21.58,8.57-8.81.79-18.09-.29-24.75-6-3.89-3.34-6.35-7.56-7.38-12.67-.34-1.71-.52-6.35-.54-13.94-.03-11.21-.01-22.32.04-33.34,0-.33.18-.5.51-.5h7.94c.25,0,.45.2.45.45h0c.05,22.69.05,35.24,0,37.64-.18,9.53,2.89,17.95,13.38,20.03,6.88,1.37,16.64.38,22.61-4.1Z"/>
  <rect class="cls-5" x="1310.78" y="76.39" width="8.98" height="64.84" rx=".4" ry=".4"/>
  <path class="cls-1" d="M138.43,154H62.5l-.72-.25c-.43-.15-.43-.31-.02-.49.97-.42,1.58-.73,1.81-.93,8.36-7.29,17.34-15.3,26.94-24.04,3.6-3.28,6.14-5.2,11.03-8.99,5.97-4.62,12.61-8.08,19.9-10.39,3.45-1.09,6.8-1.71,10.05-1.86,1.07-.05,4.83-.05,11.29,0,1.14.01,3.04.52,5.7,1.51,3.68,1.37,6.68,4.48,9.78,6.67.97.68.87.89-.28.62-1.91-.44-3.69-.85-5.36-1.23-9.24-2.12-19.29,3.84-22.58,12.65-2.2,5.89-1.6,11.79,1.8,17.71.97,1.69,2.52,3.84,4.65,6.43.29.34.67.7,1.15,1.07.97.75,1.24,1.26.79,1.51Z"/>
</svg>